<svg xmlns="http://www.w3.org/2000/svg" width="1920" height="1200" viewBox="0 0 1600 1000"><defs><filter id="grain"><feTurbulence type="fractalNoise" baseFrequency=".68" numOctaves="3" stitchTiles="stitch"/><feColorMatrix type="saturate" values="0"/><feComponentTransfer><feFuncA type="linear" slope=".14"/></feComponentTransfer><feBlend in="SourceGraphic" mode="soft-light"/></filter>
<linearGradient id="bg" x2=".5" y2="1"><stop stop-color="#c8c3ac"/><stop offset="1" stop-color="#989380"/></linearGradient>
<linearGradient id="paper" x2="1" y2="1"><stop stop-color="#efe8d4"/><stop offset="1" stop-color="#bfb9a4"/></linearGradient>
<linearGradient id="disk" x2="1" y2="1"><stop stop-color="#373a36"/><stop offset="1" stop-color="#151b1d"/></linearGradient>
<clipPath id="circle"><circle cx="1010" cy="425" r="316"/></clipPath>
<filter id="shadow"><feGaussianBlur stdDeviation="22"/></filter>
</defs><g filter="url(#grain)"><rect width="1600" height="1000" fill="url(#bg)"/><ellipse cx="1060" cy="715" rx="420" ry="90" fill="#272d28" opacity=".3" filter="url(#shadow)"/><circle cx="1010" cy="425" r="316" fill="url(#disk)"/><g clip-path="url(#circle)"><path d="M650 40V800" stroke="#a4a095" stroke-width="2" opacity=".43"/><path d="M659 40V800" stroke="#a4a095" stroke-width="2" opacity=".43"/><path d="M668 40V800" stroke="#a4a095" stroke-width="2" opacity=".43"/><path d="M677 40V800" stroke="#a4a095" stroke-width="2" opacity=".43"/><path d="M686 40V800" stroke="#a4a095" stroke-width="2" opacity=".43"/><path d="M695 40V800" stroke="#a4a095" stroke-width="2" opacity=".43"/><path d="M704 40V800" stroke="#a4a095" stroke-width="2" opacity=".43"/><path d="M713 40V800" stroke="#a4a095" stroke-width="2" opacity=".43"/><path d="M722 40V800" stroke="#a4a095" stroke-width="2" opacity=".43"/><path d="M731 40V800" stroke="#a4a095" stroke-width="2" opacity=".43"/><path d="M740 40V800" stroke="#a4a095" stroke-width="2" opacity=".43"/><path d="M749 40V800" stroke="#a4a095" stroke-width="2" opacity=".43"/><path d="M758 40V800" stroke="#a4a095" stroke-width="2" opacity=".43"/><path d="M767 40V800" stroke="#a4a095" stroke-width="2" opacity=".43"/><path d="M776 40V800" stroke="#a4a095" stroke-width="2" opacity=".43"/><path d="M785 40V800" stroke="#a4a095" stroke-width="2" opacity=".43"/><path d="M794 40V800" stroke="#a4a095" stroke-width="2" opacity=".43"/><path d="M803 40V800" stroke="#a4a095" stroke-width="2" opacity=".43"/><path d="M812 40V800" stroke="#a4a095" stroke-width="2" opacity=".43"/><path d="M821 40V800" stroke="#a4a095" stroke-width="2" opacity=".43"/><path d="M830 40V800" stroke="#a4a095" stroke-width="2" opacity=".43"/><path d="M839 40V800" stroke="#a4a095" stroke-width="2" opacity=".43"/><path d="M848 40V800" stroke="#a4a095" stroke-width="2" opacity=".43"/><path d="M857 40V800" stroke="#a4a095" stroke-width="2" opacity=".43"/><path d="M866 40V800" stroke="#a4a095" stroke-width="2" opacity=".43"/><path d="M875 40V800" stroke="#a4a095" stroke-width="2" opacity=".43"/><path d="M884 40V800" stroke="#a4a095" stroke-width="2" opacity=".43"/><path d="M893 40V800" stroke="#a4a095" stroke-width="2" opacity=".43"/><path d="M902 40V800" stroke="#a4a095" stroke-width="2" opacity=".43"/><path d="M911 40V800" stroke="#a4a095" stroke-width="2" opacity=".43"/><path d="M920 40V800" stroke="#a4a095" stroke-width="2" opacity=".43"/><path d="M929 40V800" stroke="#a4a095" stroke-width="2" opacity=".43"/><path d="M938 40V800" stroke="#a4a095" stroke-width="2" opacity=".43"/><path d="M947 40V800" stroke="#a4a095" stroke-width="2" opacity=".43"/><path d="M956 40V800" stroke="#a4a095" stroke-width="2" opacity=".43"/><path d="M965 40V800" stroke="#a4a095" stroke-width="2" opacity=".43"/><path d="M974 40V800" stroke="#a4a095" stroke-width="2" opacity=".43"/><path d="M983 40V800" stroke="#a4a095" stroke-width="2" opacity=".43"/><path d="M992 40V800" stroke="#a4a095" stroke-width="2" opacity=".43"/><path d="M1001 40V800" stroke="#a4a095" stroke-width="2" opacity=".43"/><path d="M1010 40V800" stroke="#a4a095" stroke-width="2" opacity=".43"/><path d="M1019 40V800" stroke="#a4a095" stroke-width="2" opacity=".43"/><path d="M1028 40V800" stroke="#a4a095" stroke-width="2" opacity=".43"/><path d="M1037 40V800" stroke="#a4a095" stroke-width="2" opacity=".43"/><path d="M1046 40V800" stroke="#a4a095" stroke-width="2" opacity=".43"/><path d="M1055 40V800" stroke="#a4a095" stroke-width="2" opacity=".43"/><path d="M1064 40V800" stroke="#a4a095" stroke-width="2" opacity=".43"/><path d="M1073 40V800" stroke="#a4a095" stroke-width="2" opacity=".43"/><path d="M1082 40V800" stroke="#a4a095" stroke-width="2" opacity=".43"/><path d="M1091 40V800" stroke="#a4a095" stroke-width="2" opacity=".43"/><path d="M1100 40V800" stroke="#a4a095" stroke-width="2" opacity=".43"/><path d="M1109 40V800" stroke="#a4a095" stroke-width="2" opacity=".43"/><path d="M1118 40V800" stroke="#a4a095" stroke-width="2" opacity=".43"/><path d="M1127 40V800" stroke="#a4a095" stroke-width="2" opacity=".43"/><path d="M1136 40V800" stroke="#a4a095" stroke-width="2" opacity=".43"/><path d="M1145 40V800" stroke="#a4a095" stroke-width="2" opacity=".43"/><path d="M1154 40V800" stroke="#a4a095" stroke-width="2" opacity=".43"/><path d="M1163 40V800" stroke="#a4a095" stroke-width="2" opacity=".43"/><path d="M1172 40V800" stroke="#a4a095" stroke-width="2" opacity=".43"/><path d="M1181 40V800" stroke="#a4a095" stroke-width="2" opacity=".43"/><path d="M1190 40V800" stroke="#a4a095" stroke-width="2" opacity=".43"/><path d="M1199 40V800" stroke="#a4a095" stroke-width="2" opacity=".43"/><path d="M1208 40V800" stroke="#a4a095" stroke-width="2" opacity=".43"/><path d="M1217 40V800" stroke="#a4a095" stroke-width="2" opacity=".43"/><path d="M1226 40V800" stroke="#a4a095" stroke-width="2" opacity=".43"/><path d="M1235 40V800" stroke="#a4a095" stroke-width="2" opacity=".43"/><path d="M1244 40V800" stroke="#a4a095" stroke-width="2" opacity=".43"/><path d="M1253 40V800" stroke="#a4a095" stroke-width="2" opacity=".43"/><path d="M1262 40V800" stroke="#a4a095" stroke-width="2" opacity=".43"/><path d="M1271 40V800" stroke="#a4a095" stroke-width="2" opacity=".43"/><path d="M1280 40V800" stroke="#a4a095" stroke-width="2" opacity=".43"/><path d="M1289 40V800" stroke="#a4a095" stroke-width="2" opacity=".43"/><path d="M1298 40V800" stroke="#a4a095" stroke-width="2" opacity=".43"/><path d="M1307 40V800" stroke="#a4a095" stroke-width="2" opacity=".43"/><path d="M1316 40V800" stroke="#a4a095" stroke-width="2" opacity=".43"/><path d="M1325 40V800" stroke="#a4a095" stroke-width="2" opacity=".43"/><path d="M1334 40V800" stroke="#a4a095" stroke-width="2" opacity=".43"/><path d="M1343 40V800" stroke="#a4a095" stroke-width="2" opacity=".43"/><path d="M1352 40V800" stroke="#a4a095" stroke-width="2" opacity=".43"/><path d="M1361 40V800" stroke="#a4a095" stroke-width="2" opacity=".43"/><path d="M1370 40V800" stroke="#a4a095" stroke-width="2" opacity=".43"/><path d="M1379 40V800" stroke="#a4a095" stroke-width="2" opacity=".43"/><path d="M1388 40V800" stroke="#a4a095" stroke-width="2" opacity=".43"/></g><path d="M1010 109V425H1326A316 316 0 0 0 1010 109Z" fill="url(#paper)"/><rect x="665" y="425" width="345" height="316" fill="url(#paper)"/><path d="M680 438H997V727" fill="none" stroke="#f4eeda" stroke-width="1"/><circle cx="1280" cy="670" r="86" fill="url(#disk)"/></g></svg>